<svg xmlns="http://www.w3.org/2000/svg" width="32.448" height="32.448" viewBox="0 0 32.448 32.448">
  <g id="Free-Pack_wireless-payment-credit-card-dollar" data-name="Free-Pack / wireless-payment-credit-card-dollar" transform="translate(-431.749 -501.75)">
    <g id="Group_100" transform="translate(432.749 502.75)">
      <g id="Regular_100">
        <path id="Shape_479" d="M440.868,533.2h-6.09a2.031,2.031,0,0,1-2.03-2.03V504.78a2.031,2.031,0,0,1,2.03-2.03h14.209a2.031,2.031,0,0,1,2.03,2.03v12.179" transform="translate(-432.749 -502.75)" fill="none" stroke="#fff" stroke-linecap="round" stroke-linejoin="round" stroke-width="2"/>
        <path id="Shape_480" d="M432.749,521.5h8.119" transform="translate(-432.749 -496.127)" fill="none" stroke="#fff" stroke-linecap="round" stroke-linejoin="round" stroke-width="2"/>
        <path id="Rectangle-path_27" d="M441.749,518.28a2.031,2.031,0,0,1,2.03-2.03h14.209a2.031,2.031,0,0,1,2.03,2.03V526.4a2.031,2.031,0,0,1-2.03,2.03H443.779a2.031,2.031,0,0,1-2.03-2.03Z" transform="translate(-429.57 -497.981)" fill="none" stroke="#fff" stroke-linecap="round" stroke-linejoin="round" stroke-width="2" fill-rule="evenodd"/>
        <path id="Shape_481" d="M441.749,519.25h18.269" transform="translate(-429.57 -496.922)" fill="none" stroke="#fff" stroke-linecap="round" stroke-linejoin="round" stroke-width="2"/>
        <path id="Shape_482" d="M444.749,522.25h3.045" transform="translate(-428.51 -495.862)" fill="none" stroke="#fff" stroke-linecap="round" stroke-linejoin="round" stroke-width="2"/>
      </g>
    </g>
  </g>
</svg>
