<svg xmlns="http://www.w3.org/2000/svg" width="27.83" height="30.614" viewBox="0 0 27.83 30.614">
  <path id="Administrator" d="M19.915,5A9.744,9.744,0,0,0,14.48,22.829,13.95,13.95,0,0,0,6,35.614H8.783a11.088,11.088,0,0,1,3.3-7.914l2.566,3.218.783,1,1.087-.7,3.392-2.261,3.392,2.261,1.174.739.783-1.131,2.218-3.348a11.072,11.072,0,0,1,3.566,8.132H33.83a13.95,13.95,0,0,0-8.48-12.785A9.744,9.744,0,0,0,19.915,5Zm0,2.783a6.958,6.958,0,1,1-6.958,6.958A6.937,6.937,0,0,1,19.915,7.783Zm0,16.7a11.087,11.087,0,0,1,5.305,1.348L23.7,28.091l-3-2-.783-.478-.783.478-3.087,2.087L14.349,26A11.051,11.051,0,0,1,19.915,24.481Z" transform="translate(-6 -5)" fill="#fff"/>
</svg>
