<svg xmlns="http://www.w3.org/2000/svg" width="36.57" height="36.568" viewBox="0 0 36.57 36.568">
  <g id="Group_13" transform="translate(1.063 1.063)">
    <g id="Regular_13">
      <path id="Shape_60" d="M111.746,121.333a3,3,0,0,0,4.453,0l1.439-1.6a3,3,0,0,1,5.217,2.164l-.11,2.144a3,3,0,0,0,3.15,3.15l2.144-.11a3,3,0,0,1,2.167,5.224l-1.6,1.439a3,3,0,0,0,0,4.453l1.6,1.439a3,3,0,0,1-2.164,5.223l-2.144-.11a3,3,0,0,0-3.15,3.15l.11,2.144a3,3,0,0,1-5.22,2.159l-1.439-1.6a3,3,0,0,0-4.453,0l-1.439,1.6a3,3,0,0,1-5.223-2.164l.11-2.144a3,3,0,0,0-3.148-3.145l-2.144.11a3,3,0,0,1-2.159-5.223l1.594-1.439a3,3,0,0,0,0-4.453l-1.594-1.439a3,3,0,0,1,2.156-5.215l2.144.11a3,3,0,0,0,3.151-3.157l-.11-2.144a3,3,0,0,1,5.223-2.159Z" transform="translate(-96.753 -118.753)" fill="none" stroke="#fff" stroke-linecap="round" stroke-linejoin="round" stroke-width="2" fill-rule="evenodd"/>
      <path id="Oval_13" d="M110.389,139.281a6.89,6.89,0,1,0-6.89-6.89A6.891,6.891,0,0,0,110.389,139.281Z" transform="translate(-93.17 -115.169)" fill="none" stroke="#fff" stroke-linecap="round" stroke-linejoin="round" stroke-width="2" fill-rule="evenodd"/>
    </g>
  </g>
</svg>
